<svg xmlns="http://www.w3.org/2000/svg" width="24" height="24" viewBox="0 0 24 24">
    <g fill="none" fill-rule="nonzero">
        <path fill="#F4512C" d="M7.742 18.194H9.29c.64 0 1.162-.522 1.162-1.162v-3.097c0-.64-.521-1.16-1.162-1.16H7.742c-.64 0-1.161.52-1.161 1.16v3.097c0 .64.52 1.162 1.16 1.162zm-.387-4.259c0-.213.174-.387.387-.387H9.29c.214 0 .387.174.387.387v3.097a.388.388 0 0 1-.387.387H7.742a.388.388 0 0 1-.387-.387v-3.097zM12.387 18.194h1.548c.64 0 1.162-.522 1.162-1.162v-.774c0-.298-.117-.568-.302-.774.186-.206.302-.476.302-.774v-.775c0-.64-.521-1.16-1.162-1.16h-1.548c-.64 0-1.161.52-1.161 1.16v.775c0 .298.116.568.302.774a1.152 1.152 0 0 0-.302.774v.774c0 .64.52 1.162 1.161 1.162zm1.936-1.162a.388.388 0 0 1-.388.387h-1.548a.388.388 0 0 1-.387-.387v-.774c0-.214.174-.387.387-.387h1.548c.214 0 .388.173.388.387v.774zM12 13.935c0-.213.174-.387.387-.387h1.548c.214 0 .388.174.388.387v.775a.388.388 0 0 1-.388.387h-1.548A.388.388 0 0 1 12 14.71v-.775z"/>
        <path fill="#FFF" fill-opacity=".7" d="M24 5.806A5.813 5.813 0 0 0 18.194 0c-3.071 0-5.587 2.398-5.787 5.42H.774A.775.775 0 0 0 0 6.193v2.322c0 .427.347.774.774.774V24h20.13V10.938A5.81 5.81 0 0 0 24 5.806zM.774 6.194h11.633a5.76 5.76 0 0 0 .655 2.322H.774V6.194zm15.484 12h-1.161v1.16H5.419v-7.741h10.84v6.58zm-.387.774h2.162l-2.162 2.162v-2.162zm2.71-.774h-1.549v-6.581a.773.773 0 0 0-.012-.12c.38.079.772.12 1.174.12.13 0 .258-.011.387-.02v6.6zM5.419 10.839a.775.775 0 0 0-.774.774v7.742c0 .427.347.774.774.774h9.678v1.548h-12V9.29h10.451v-.014a5.838 5.838 0 0 0 1.761 1.563H5.42zm14.71 12.387H1.549V9.29h.774v13.162h13.321l3.71-3.711v-7.245c.267-.054.523-.132.775-.222v11.952zm-1.935-12.387a5.038 5.038 0 0 1-5.033-5.033A5.038 5.038 0 0 1 18.194.774a5.038 5.038 0 0 1 5.032 5.032 5.038 5.038 0 0 1-5.032 5.033z"/>
        <path fill="#F4512C" d="M17.806 3.871v2.323h1.549v-.775h-.774V3.871z"/>
        <path fill="#F4512C" d="M18.194 1.548c-.98 0-1.937.342-2.695.962l.49.6a3.487 3.487 0 0 1 1.817-.763v.75h.775v-.752a3.489 3.489 0 0 1 3.074 3.074h-.752v.775h.75a3.487 3.487 0 0 1-.762 1.817l.6.49c.62-.758.96-1.715.96-2.695a4.263 4.263 0 0 0-4.257-4.258zM18.58 9.266v-.75h-.774v.751a3.489 3.489 0 0 1-3.073-3.073h.75v-.775h-.749a3.487 3.487 0 0 1 .762-1.817l-.599-.49a4.266 4.266 0 0 0-.962 2.694 4.263 4.263 0 0 0 4.259 4.259c.98 0 1.936-.342 2.694-.962l-.49-.6a3.487 3.487 0 0 1-1.817.763z"/>
        <path fill="#FFF" fill-opacity=".7" d="M1.548 6.968h.775v.774h-.775zM3.097 6.968h.774v.774h-.774zM4.645 6.968h.774v.774h-.774z"/>
    </g>
</svg>
