<svg xmlns="http://www.w3.org/2000/svg" width="40" height="40" viewBox="0 0 40 40">
    <g fill="none" fill-rule="nonzero">
        <path fill="#F4512C" d="M36.827 24.94a.994.994 0 0 0-.994.994v8.823a2.984 2.984 0 0 1-2.981 2.981H4.969a2.984 2.984 0 0 1-2.982-2.981V8.86a2.985 2.985 0 0 1 2.982-2.98h8.823a.994.994 0 1 0 0-1.988H4.969A4.974 4.974 0 0 0 0 8.86v25.896a4.974 4.974 0 0 0 4.969 4.969h27.883a4.974 4.974 0 0 0 4.968-4.969v-8.823a.994.994 0 0 0-.993-.994z"/>
        <path fill="#C1C3C6" d="M37.427 1.336a4.472 4.472 0 0 0-6.324 0l-17.73 17.728a.993.993 0 0 0-.254.438l-2.332 8.417a.993.993 0 0 0 1.223 1.223l8.417-2.332a.993.993 0 0 0 .437-.255l17.729-17.73a4.477 4.477 0 0 0 0-6.323l-1.166-1.166zM15.539 19.71L30.05 5.2l4.68 4.68-14.51 14.51-4.68-4.68zm-.935 1.876l3.739 3.739-5.171 1.433 1.432-5.172zM37.188 7.421l-1.054 1.054-4.68-4.68 1.054-1.054c.97-.97 2.543-.97 3.513 0l1.167 1.166a2.488 2.488 0 0 1 0 3.514z"/>
    </g>
</svg>
