<svg xmlns="http://www.w3.org/2000/svg" width="21" height="24" viewBox="0 0 21 24">
    <g fill="none" fill-rule="nonzero">
        <path fill="#F4512C" d="M17.06 17.199l.635.441a8.22 8.22 0 0 0 .496-.812l-.682-.365a7.66 7.66 0 0 1-.45.736zM13.548 3.871c-.702 0-1.39.178-2.044.528-.76.406-1.26 1.21-1.342 2.148l.772.067c.059-.687.4-1.246.935-1.533a3.53 3.53 0 0 1 1.68-.436c2.727 0 5.032 3.368 5.032 7.355 0 1.298-.25 2.585-.722 3.722l.715.298c.51-1.231.78-2.621.78-4.02 0-4.406-2.658-8.129-5.806-8.129z"/>
        <path fill="#FFF" fill-opacity=".7" d="M13.548 2.323c-.96 0-1.894.239-2.775.71-1.251.67-2.019 1.929-2.15 3.351A8.577 8.577 0 0 1 6.194.387V0H3.872v.387c0 3.715 1.844 7.112 4.939 9.14a1.985 1.985 0 0 1-.506.902l-.213.207.146.26c.183.324.28.707.28 1.104 0 .397-.097.78-.28 1.105l-.145.259.212.207c.38.372.6.928.6 1.526 0 .228-.033.451-.1.679a1.757 1.757 0 0 1-1.676 1.256H6.58A6.588 6.588 0 0 0 0 23.612V24h3.027l.062-.311a4.44 4.44 0 0 1 4.343-3.56h.567c.947 0 1.811.234 2.499.676a5.831 5.831 0 0 0 3.05.872c4.056 0 7.355-4.34 7.355-9.677 0-5.336-3.299-9.677-7.355-9.677zM4.653.774h.774a9.339 9.339 0 0 0 3.218 6.692c.034.257.088.516.164.775.039.13.061.268.076.406A10.095 10.095 0 0 1 4.653.774zm8.895 20.13a5.06 5.06 0 0 1-2.631-.75c-.813-.523-1.822-.8-2.918-.8h-.567a5.218 5.218 0 0 0-5.03 3.872H.788a5.814 5.814 0 0 1 5.794-5.42h.547a2.539 2.539 0 0 0 2.424-1.827c.083-.283.125-.58.125-.882 0-.702-.23-1.367-.638-1.868A3.08 3.08 0 0 0 9.29 12c0-.43-.086-.85-.251-1.23.408-.5.638-1.165.638-1.867 0-.302-.042-.599-.125-.882-.518-1.757.134-3.527 1.586-4.304a5.058 5.058 0 0 1 2.41-.62c3.629 0 6.581 3.993 6.581 8.903s-2.952 8.903-6.58 8.903z"/>
    </g>
</svg>
