<svg xmlns="http://www.w3.org/2000/svg" width="24" height="24" viewBox="0 0 24 24">
    <g fill="none" fill-rule="nonzero">
        <path fill="#FFF" fill-opacity=".7" d="M24 8.903c0-3.071-2.398-5.586-5.42-5.787V0H0v20.903h16.258v1.162c0 1.067.868 1.935 1.936 1.935a1.938 1.938 0 0 0 1.935-1.935v-5.807h-.774v-1.665A5.817 5.817 0 0 0 24 8.903zm-.774 0a5.038 5.038 0 0 1-5.032 5.032 5.038 5.038 0 0 1-5.033-5.032 5.038 5.038 0 0 1 5.033-5.032 5.038 5.038 0 0 1 5.032 5.032zm-6.968 7.355v3.871H.774V.774h17.032v2.342c-3.02.201-5.419 2.716-5.419 5.787a5.817 5.817 0 0 0 4.645 5.69v1.665h-.774zm3.097 5.807c0 .64-.521 1.16-1.161 1.16s-1.162-.52-1.162-1.16v-5.033h2.323v5.033zm-.774-5.807h-.775V14.69c.129.009.257.02.388.02.13 0 .258-.011.387-.02v1.568z"/>
        <path fill="#C1C3C6" d="M13.935 8.903a4.263 4.263 0 0 0 4.259 4.258 4.263 4.263 0 0 0 4.258-4.258 4.263 4.263 0 0 0-4.258-4.258 4.263 4.263 0 0 0-4.259 4.258zm7.742 0a3.488 3.488 0 0 1-3.483 3.484 3.488 3.488 0 0 1-3.484-3.484 3.488 3.488 0 0 1 3.484-3.484 3.488 3.488 0 0 1 3.483 3.484z"/>
        <path fill="#F4512C" d="M18.58 22.065a.387.387 0 1 1-.774 0 .387.387 0 0 1 .775 0zM16.86 9.742l-.43.645 1.527 1.017 2.131-4.263-.693-.346-1.739 3.479z"/>
        <path fill="#FFF" fill-opacity=".7" d="M6.938 12.923l-.715-.298-.545 1.31h-4.13v5.42h6.194v-5.42H6.516l.422-1.012zm.03 1.787v3.87H2.323v-3.87h3.032l-.845 2.027-.752-.753-.547.548 1.57 1.57 1.413-3.392h.774zM6.938 5.568l-.715-.298-.545 1.31h-4.13V12h6.194V6.58H6.516l.422-1.012zm.03 1.787v3.87H2.323v-3.87h3.032L4.51 9.382l-.752-.752-.547.547 1.57 1.57 1.413-3.392h.774zM10.839 3.097h.774v.774h-.774zM1.548 3.097h8.517v.774H1.548zM8.516 13.935h4.645v.775H8.516zM8.516 15.484h4.645v.774H8.516zM8.516 17.032h4.645v.774H8.516zM8.516 18.58h4.645v.775H8.516zM8.516 6.58h3.097v.775H8.516zM8.516 8.129h3.097v.774H8.516zM8.516 9.677h3.097v.775H8.516zM8.516 11.226h3.097V12H8.516zM1.548 1.548h10.065v.775H1.548z"/>
    </g>
</svg>
