<svg xmlns="http://www.w3.org/2000/svg" width="50" height="40" viewBox="0 0 50 40">
    <g fill="none" fill-rule="nonzero">
        <path fill="#C1C3C6" d="M43.78.003H30.94c-.63 0-1.257.11-1.85.325l-3.394 1.23c-.717.26-1.503.26-2.22 0L20.08.329a5.425 5.425 0 0 0-1.85-.325H5.39C2.416.007.004 2.4 0 5.351v27.493c.003 2.951 2.415 5.344 5.39 5.347h12.84c.379 0 .755.066 1.11.195l3.396 1.23a5.438 5.438 0 0 0 3.7 0l3.394-1.23c.356-.129.732-.195 1.111-.195H43.78c2.976-.003 5.387-2.396 5.39-5.347V5.35C49.168 2.399 46.757.007 43.78.003zm-23.7 36.373a5.41 5.41 0 0 0-1.85-.324H5.39c-1.785-.003-3.232-1.438-3.234-3.209V5.351c.002-1.771 1.449-3.207 3.235-3.209h12.84c.378 0 .754.066 1.11.195l3.395 1.23c.251.091.509.163.77.216v33.834l-.031-.01-3.395-1.23zm26.934-3.532c-.002 1.77-1.449 3.206-3.234 3.208H30.94c-.63 0-1.257.11-1.85.325l-3.395 1.23-.032.01V3.784c.262-.052.52-.124.772-.215l3.395-1.23c.356-.13.732-.196 1.11-.195h12.84c1.785.002 3.232 1.437 3.234 3.208v27.493z"/>
        <path fill="#F4512C" d="M6.162 11.846h8.519c.595 0 1.078-.479 1.078-1.07 0-.59-.483-1.07-1.078-1.07H6.16c-.595 0-1.077.48-1.077 1.07 0 .591.482 1.07 1.078 1.07zM18.993 15.254H6.162c-.596 0-1.078.479-1.078 1.07 0 .59.482 1.069 1.078 1.069h12.831c.596 0 1.079-.479 1.079-1.07 0-.59-.483-1.069-1.079-1.069zM18.993 20.8H6.162c-.596 0-1.078.48-1.078 1.07 0 .591.482 1.07 1.078 1.07h12.831c.596 0 1.079-.479 1.079-1.07 0-.59-.483-1.07-1.079-1.07zM18.993 26.348H6.162c-.596 0-1.078.48-1.078 1.07 0 .59.482 1.07 1.078 1.07h12.831c.596 0 1.079-.48 1.079-1.07 0-.59-.483-1.07-1.079-1.07z"/>
    </g>
</svg>
