<?xml version="1.0" encoding="UTF-8"?>
<svg width="24px" height="24px" viewBox="0 0 24 24" version="1.1" xmlns="http://www.w3.org/2000/svg" xmlns:xlink="http://www.w3.org/1999/xlink">
    <!-- Generator: sketchtool 55 (78076) - https://sketchapp.com -->
    <title>5ED53220-BE6D-47D6-B12F-0F3F63A1ADFB</title>
    <desc>Created with sketchtool.</desc>
    <g id="Page-1" stroke="none" stroke-width="1" fill="none" fill-rule="evenodd">
        <g id="비타민-한의원_메인" transform="translate(-111.000000, -353.000000)" fill-rule="nonzero">
            <g id="main-bar" transform="translate(0.000000, 338.000000)">
                <g id="2" transform="translate(102.000000, 15.000000)">
                    <g id="thesis" transform="translate(9.000000, 0.000000)">
                        <path d="M23.3249032,7.27625806 L17.4193548,5.88696774 L17.4193548,0 L2.32258065,0 C1.04167742,0 0,1.04167742 0,2.32258065 L0,21.6774194 C0,22.9583226 1.04167742,24 2.32258065,24 L17.4193548,24 L17.4193548,23.2258065 C16.5654194,23.2258065 15.8709677,22.5313548 15.8709677,21.6774194 C15.8709677,20.8234839 16.5654194,20.1290323 17.4193548,20.1290323 L17.4193548,19.7419355 L17.4193548,19.3548387 L17.4193548,15.012 L22.0645161,13.8507097 L22.0645161,9.27832258 L23.3249032,8.98180645 C23.7224516,8.88774194 24,8.53741935 24,8.12903226 C24,7.72064516 23.7224516,7.37032258 23.3249032,7.27625806 Z M0.774193548,2.32258065 C0.774193548,1.60296774 1.26929032,1.00219355 1.93548387,0.82916129 L1.93548387,19.3896774 C1.49341935,19.4643871 1.09432258,19.6637419 0.774193548,19.9509677 L0.774193548,2.32258065 Z M15.6894194,23.2258065 L2.32258065,23.2258065 C1.46864516,23.2258065 0.774193548,22.5313548 0.774193548,21.6774194 C0.774193548,20.8234839 1.46864516,20.1290323 2.32258065,20.1290323 L15.6894194,20.1290323 C15.3212903,20.540129 15.0967742,21.0832258 15.0967742,21.6774194 C15.0967742,22.2716129 15.3212903,22.8147097 15.6894194,23.2258065 Z M16.6451613,19.3548387 L2.70967742,19.3548387 L2.70967742,0.774193548 L16.6451613,0.774193548 L16.6451613,5.88696774 L15.0967742,6.25122581 L15.0967742,2.32258065 L4.25806452,2.32258065 L4.25806452,9.29032258 L10.0645161,9.29032258 L10.0645161,10.0645161 L4.25806452,10.0645161 L4.25806452,10.8387097 L10.0645161,10.8387097 L10.0645161,11.684129 C9.61509677,11.8443871 9.29032258,12.2701935 9.29032258,12.7741935 L9.29032258,15.483871 L11.6129032,15.483871 L11.6129032,12.7741935 C11.6129032,12.2701935 11.288129,11.8443871 10.8387097,11.684129 L10.8387097,9.00503226 L12,9.27832258 L12,13.8507097 L16.6451613,15.012 L16.6451613,19.3548387 Z M10.7396129,7.27587097 C10.3420645,7.37032258 10.0645161,7.72064516 10.0645161,8.12903226 L10.0645161,8.51612903 L5.03225806,8.51612903 L5.03225806,3.09677419 L14.3225806,3.09677419 L14.3225806,6.43316129 L10.7396129,7.27587097 Z M10.8387097,12.7741935 L10.8387097,14.7096774 L10.0645161,14.7096774 L10.0645161,12.7741935 C10.0645161,12.5605161 10.2379355,12.3870968 10.4516129,12.3870968 C10.6652903,12.3870968 10.8387097,12.5605161 10.8387097,12.7741935 Z M21.2903226,11.6980645 L20.4329032,11.9125161 L20.6202581,12.6630968 L21.2903226,12.4954839 L21.2903226,13.2456774 L17.0322581,14.3101935 L12.7741935,13.2456774 L12.7741935,12.4954839 L17.0322581,13.5603871 L19.8421935,12.8578065 L19.6548387,12.1072258 L17.0322581,12.7621935 L12.7741935,11.6980645 L12.7741935,9.46064516 L17.0322581,10.4624516 L21.2903226,9.46064516 L21.2903226,11.6980645 Z M23.1472258,8.22812903 L17.0322581,9.66696774 L10.9172903,8.22812903 C10.8712258,8.21729032 10.8387097,8.17664516 10.8387097,8.12903226 C10.8387097,8.08141935 10.8712258,8.04077419 10.9172903,8.02993548 L17.0322581,6.59109677 L23.1472258,8.02993548 C23.1932903,8.04077419 23.2258065,8.08141935 23.2258065,8.12903226 C23.2258065,8.17664516 23.1932903,8.21729032 23.1472258,8.22812903 Z" id="Shape" fill-opacity="0.7" fill="#FFFFFF"></path>
                        <rect id="Rectangle" fill="#F4512C" x="4.25806452" y="12" width="4.25806452" height="1"></rect>
                        <rect id="Rectangle" fill="#F4512C" x="4.25806452" y="13.5483871" width="4.25806452" height="1"></rect>
                        <rect id="Rectangle" fill="#F4512C" x="4.25806452" y="15.0967742" width="4.25806452" height="1"></rect>
                        <polygon id="Rectangle" fill="#F4512C" transform="translate(7.161595, 17.044223) rotate(-0.280747) translate(-7.161595, -17.044223) " points="4.25830986 16.6571217 10.0648796 16.6571217 10.0648796 17.4313245 4.25830986 17.4313245"></polygon>
                        <polygon id="Rectangle" fill="#F4512C" transform="translate(12.967889, 17.044767) rotate(-0.349500) translate(-12.967889, -17.044767) " points="10.8387686 16.6576627 15.0970092 16.6576627 15.0970092 17.4318707 10.8387686 17.4318707"></polygon>
                        <rect id="Rectangle" fill="#F4512C" x="1.93548387" y="21.2903226" width="10.8387097" height="1"></rect>
                        <rect id="Rectangle" fill="#000000" x="13.5483871" y="21.2903226" width="1" height="1"></rect>
                    </g>
                </g>
            </g>
        </g>
    </g>
</svg>