<svg xmlns="http://www.w3.org/2000/svg" width="37" height="40" viewBox="0 0 37 40">
    <g fill="none" fill-rule="nonzero">
        <path fill="#C1C3C6" d="M22.135 20.663a.664.664 0 0 0-.661.667v9.337H1.652V5.333h19.822v9.332c0 .369.296.667.66.667.365 0 .661-.298.661-.667V2.937C22.795 1.318 21.49 0 19.885 0H3.24C1.637 0 .331 1.318.331 2.937v34.126C.331 38.682 1.637 40 3.241 40h16.643c1.605 0 2.91-1.318 2.91-2.937V21.33a.663.663 0 0 0-.66-.667zM3.24 1.333h16.643c.876 0 1.59.72 1.59 1.604V4H1.651V2.937a1.6 1.6 0 0 1 1.59-1.604zm16.643 37.334H3.241c-.876 0-1.589-.72-1.589-1.604V32h19.822v5.063c0 .884-.713 1.604-1.59 1.604z"/>
        <path fill="#C1C3C6" d="M11.563 32.667c-1.457 0-2.643 1.196-2.643 2.666 0 1.471 1.186 2.667 2.643 2.667 1.458 0 2.643-1.196 2.643-2.667 0-1.47-1.186-2.666-2.643-2.666zm0 4a1.329 1.329 0 0 1-1.321-1.334c0-.735.592-1.333 1.321-1.333s1.322.598 1.322 1.333c0 .736-.593 1.334-1.322 1.334zM8.92 3.333h2.643c.365 0 .66-.298.66-.666a.664.664 0 0 0-.66-.667H8.92a.664.664 0 0 0-.66.667c0 .368.295.666.66.666zM13.545 3.333h.661c.365 0 .66-.298.66-.666a.664.664 0 0 0-.66-.667h-.66a.664.664 0 0 0-.661.667c0 .368.295.666.66.666z"/>
        <path fill="#F4512C" d="M36.62 18.255a.673.673 0 0 0-.144-.728L28.548 9.53a.656.656 0 0 0-.934 0 .67.67 0 0 0 0 .942l6.8 6.862H10.903a.664.664 0 0 0-.66.667c0 .369.296.667.66.667h23.513l-6.801 6.862a.67.67 0 0 0 0 .942.656.656 0 0 0 .934 0l7.928-7.999a.671.671 0 0 0 .143-.217z"/>
    </g>
</svg>
