<svg xmlns="http://www.w3.org/2000/svg" width="38" height="40" viewBox="0 0 38 40">
    <g fill="none" fill-rule="nonzero">
        <path fill="#C1C3C6" d="M34.286 0H3.427C1.535.002.002 1.551 0 3.463v35.671c0 .478.384.866.857.866h36a.861.861 0 0 0 .856-.866V3.464C37.711 1.55 36.178.001 34.286 0zm-10.21 38.268h-9.972V32.77c0-.478.384-.865.857-.866h8.259c.473 0 .856.388.857.866v5.498zm1.714 0V32.77c-.001-1.434-1.151-2.596-2.57-2.598h-8.26c-1.418.002-2.568 1.164-2.57 2.598v5.498H1.715V3.463a1.725 1.725 0 0 1 1.713-1.731h30.859A1.724 1.724 0 0 1 36 3.463v34.805H25.79z"/>
        <path fill="#C1C3C6" d="M32.181 17.402H5.531a.861.861 0 0 0-.856.865v7.402c0 .478.384.865.857.865h26.65a.861.861 0 0 0 .856-.865v-7.402a.861.861 0 0 0-.857-.865zm-12.468 1.731h5.141v5.67h-5.14v-5.67zM18 24.803h-5.14v-5.67H18v5.67zm-11.611-5.67h4.757v5.67H6.389v-5.67zm24.935 5.67h-4.756v-5.67h4.756v5.67z"/>
        <path fill="#F4512C" d="M32.181 5.197H5.531a.861.861 0 0 0-.856.866v7.4c0 .479.384.866.857.866h26.65a.861.861 0 0 0 .856-.865V6.063a.861.861 0 0 0-.857-.866zM19.713 6.928h5.141v5.67h-5.14v-5.67zM18 12.598h-5.14v-5.67H18v5.67zM6.389 6.928h4.757v5.67H6.389v-5.67zm24.935 5.67h-4.756v-5.67h4.756v5.67z"/>
    </g>
</svg>
