<svg xmlns="http://www.w3.org/2000/svg" width="27" height="24" viewBox="0 0 27 24">
    <g fill="none" fill-rule="nonzero">
        <path fill="#FFF" d="M23.04 6.206a2.604 2.604 0 0 0-2.601-2.602c-.534 0-1.052.165-1.487.47a2.588 2.588 0 0 0-2.973 0 2.584 2.584 0 0 0-2.973 0 2.59 2.59 0 0 0-2.972 0 2.593 2.593 0 0 0-2.973 0V1.906L4.934.631h-.846v3.442a2.61 2.61 0 0 0-1.115 2.133 2.604 2.604 0 0 0 2.601 2.6 2.59 2.59 0 0 0 1.487-.469 2.59 2.59 0 0 0 2.973 0 2.595 2.595 0 0 0 2.972 0 2.59 2.59 0 0 0 2.973 0c.427.299.943.47 1.487.47.137 0 .273-.013.407-.035-.021.134-.036.269-.036.406 0 .138.013.274.035.409a2.663 2.663 0 0 0-1.89.434 2.586 2.586 0 0 0-2.976-.002 2.59 2.59 0 0 0-2.973 0 2.584 2.584 0 0 0-2.972 0 2.595 2.595 0 0 0-2.973 0A2.588 2.588 0 0 0 2.6 9.55a2.604 2.604 0 0 0-2.135 4.092 2.595 2.595 0 0 0 .003 2.97c-.294.42-.469.933-.469 1.485a2.597 2.597 0 1 0 4.088 2.132 2.594 2.594 0 0 0 2.973 0 2.588 2.588 0 0 0 2.973 0 2.594 2.594 0 0 0 2.974 0 2.588 2.588 0 0 0 2.972 0v2.166l2.126 1.276h.846V20.23a2.61 2.61 0 0 0 1.115-2.132 2.605 2.605 0 0 0-2.601-2.601c-.534 0-1.052.164-1.487.47a2.588 2.588 0 0 0-2.973 0 2.587 2.587 0 0 0-2.972-.001 2.595 2.595 0 0 0-2.973 0 2.588 2.588 0 0 0-1.487-.47 2.62 2.62 0 0 0-.407.036c.021-.134.036-.269.036-.407 0-.138-.015-.273-.036-.407.134.021.27.036.407.036.553 0 1.064-.175 1.486-.47a2.594 2.594 0 0 0 2.973 0 2.588 2.588 0 0 0 2.973 0 2.588 2.588 0 0 0 2.973 0 2.587 2.587 0 0 0 2.973 0c.434.304.95.47 1.487.47a2.605 2.605 0 0 0 2.601-2.602c0-.534-.165-1.051-.47-1.486a2.587 2.587 0 0 0 0-2.973c.304-.434.47-.95.47-1.486zm-1.22 4.707c.308.342.477.782.477 1.238a1.86 1.86 0 0 1-1.858 1.858c-.33 0-.65-.09-.93-.253.348-.442.558-.999.558-1.605h-.743a1.86 1.86 0 0 1-1.858 1.858c-.786 0-1.49-.497-1.753-1.238l-.7.248c.096.271.236.517.407.735-.674.377-1.576.308-2.165-.221l-.249-.223-.248.223a1.853 1.853 0 0 1-2.983-.742l-.698.255c.095.26.23.498.397.709a1.934 1.934 0 0 1-1.855-.001c.347-.442.556-.998.556-1.603h-.743a1.86 1.86 0 0 1-1.858 1.858 1.82 1.82 0 0 1-.691-.137 2.604 2.604 0 0 0-.9-.952l-.396.63a1.85 1.85 0 0 1 .736 2.268 2.603 2.603 0 0 0-1.35 2.28h.743a1.86 1.86 0 0 1 1.858-1.859c.457 0 .896.17 1.238.476l.249.223.248-.223c.59-.529 1.492-.597 2.166-.22a2.603 2.603 0 0 0-.556 1.602h.743a1.862 1.862 0 0 1 1.858-1.858 1.86 1.86 0 0 1 1.858 1.858h.743c0-.604-.209-1.16-.556-1.602.674-.377 1.576-.309 2.166.22l.248.223.249-.223a1.853 1.853 0 0 1 1.238-.476 1.86 1.86 0 0 1 1.858 1.858c0 .66-.356 1.276-.93 1.607l-.185.108v3.054l-1.486-.891v-2.163l-.186-.107a1.882 1.882 0 0 1-.31-.225l-.248-.224-.248.223a1.853 1.853 0 0 1-2.976-.724l-.695.264c.094.25.226.478.386.68a1.933 1.933 0 0 1-1.853 0c.174-.221.316-.471.411-.747l-.701-.244a1.853 1.853 0 0 1-2.994.771l-.248-.223-.249.223c-.59.53-1.492.598-2.165.22.174-.22.315-.47.411-.746l-.702-.244a1.86 1.86 0 0 1-1.755 1.246 1.86 1.86 0 0 1-1.858-1.858 1.86 1.86 0 0 1 1.858-1.858v-.743c-.605 0-1.162.21-1.605.558-.162-.28-.253-.6-.253-.93 0-.328.09-.646.251-.926a2.6 2.6 0 0 0 1.187.521l.12-.734a1.85 1.85 0 0 1-1.558-1.834A1.856 1.856 0 1 1 3.84 10.77l.248.223.248-.223c.59-.529 1.492-.597 2.165-.22a2.591 2.591 0 0 0-.407.735l.7.248a1.861 1.861 0 0 1 1.753-1.239 1.86 1.86 0 0 1 1.858 1.858h.743c0-.604-.209-1.16-.556-1.602.674-.377 1.576-.309 2.167.22l.247.223.248-.223a1.856 1.856 0 0 1 3.097 1.382h.743c0-.604-.209-1.16-.556-1.602a1.893 1.893 0 0 1 1.628-.114c.095.17.206.331.338.478l.553-.497a1.851 1.851 0 0 1-.338-1.936c.17-.095.333-.206.481-.34l-.496-.552a1.856 1.856 0 0 1-2.99-.763l-.701.248c.096.271.235.517.407.735-.674.377-1.575.309-2.166-.22l-.248-.223-.247.223c-.59.528-1.492.597-2.166.22.171-.217.31-.463.407-.734l-.7-.248a1.856 1.856 0 0 1-2.99.762l-.25-.223-.247.223a1.856 1.856 0 1 1-2.167-2.99l.185-.108V1.436l1.486.892V4.49l.186.108c.11.063.213.139.31.225l.248.223.248-.223c.59-.529 1.492-.597 2.166-.22a2.587 2.587 0 0 0-.556 1.603h.743a1.856 1.856 0 1 1 3.097-1.382l.247.222.248-.223a1.856 1.856 0 0 1 3.097 1.383h.743c0-.605-.209-1.16-.556-1.603.674-.377 1.575-.308 2.166.221l.248.222.248-.223a1.856 1.856 0 0 1 3.097 1.383c0 .33-.09.649-.253.93-.443-.349-1-.559-1.605-.559v.743a1.86 1.86 0 0 1 1.858 1.858c0 .457-.17.897-.476 1.239l-.223.248.223.248z" opacity=".7"/>
        <path stroke="#F4512C" stroke-linejoin="round" d="M25.92 14.234h-3.288L25.68 9.6h-3.84l-3.6 6.952h2.832L18.24 23.04z"/>
    </g>
</svg>
