<svg xmlns="http://www.w3.org/2000/svg" width="55" height="45" viewBox="0 0 55 45">
    <g fill="none" fill-rule="evenodd">
        <circle cx="22.5" cy="22.5" r="22.5" fill="#D8D8D8"/>
        <g fill="#313643" fill-rule="nonzero">
            <path d="M28.58 30.236l.555.591a8.61 8.61 0 0 0 .686-.724l-.62-.523a8.025 8.025 0 0 1-.621.656zM27.885 15.814a4.507 4.507 0 0 0-2.21.095c-.867.252-1.555.966-1.842 1.91l.775.237c.21-.692.682-1.19 1.293-1.367a3.698 3.698 0 0 1 1.816-.081c2.795.594 4.423 4.547 3.554 8.632a10.253 10.253 0 0 1-1.55 3.658l.668.46a11.078 11.078 0 0 0 1.676-3.949c.96-4.515-.955-8.91-4.18-9.595z"/>
            <path d="M28.222 14.228a6.106 6.106 0 0 0-2.999.124c-1.428.414-2.488 1.536-2.932 2.965a8.986 8.986 0 0 1-1.184-6.675l.085-.396-2.38-.506-.085.396c-.809 3.807.341 7.69 3.07 10.443a2.08 2.08 0 0 1-.714.813l-.263.166.092.297c.117.373.132.786.046 1.193a2.365 2.365 0 0 1-.527 1.072l-.205.233.173.26c.309.463.411 1.08.281 1.693-.05.234-.13.455-.249.674a1.84 1.84 0 0 1-1.992.922l-.56-.119a6.902 6.902 0 0 0-8.177 5.31l-.085.397 3.102.66.132-.306a4.651 4.651 0 0 1 5.225-2.702l.58.124c.972.206 1.806.634 2.415 1.237a6.109 6.109 0 0 0 2.936 1.559c4.156.882 8.482-2.848 9.644-8.316 1.163-5.468-1.273-10.635-5.429-11.518zm-8.778-3.525l.794.17a9.784 9.784 0 0 0 1.84 7.557c-.022.27-.023.548-.001.83.011.142.004.288-.01.433a10.575 10.575 0 0 1-2.623-8.99zm4.731 22.565a5.301 5.301 0 0 1-2.533-1.342c-.72-.712-1.693-1.215-2.816-1.454l-.581-.123a5.466 5.466 0 0 0-5.997 2.871l-1.655-.352a6.09 6.09 0 0 1 7.117-4.291l.56.119a2.66 2.66 0 0 0 2.882-1.345c.148-.272.256-.567.321-.876.153-.72.062-1.45-.247-2.053.251-.353.431-.764.525-1.205.094-.441.097-.89.01-1.315.528-.424.909-1.055 1.061-1.774.066-.31.088-.623.064-.932-.149-1.912.906-3.584 2.563-4.065a5.299 5.299 0 0 1 2.605-.11c3.718.79 5.873 5.526 4.804 10.557-1.07 5.03-4.964 8.48-8.683 7.69z"/>
        </g>
        <path fill="#F4512C" fill-rule="nonzero" d="M51.715 17.824c3.712 3.708 3.712 9.726.008 13.433-3.127 3.128-7.89 3.617-11.53 1.477l-.02-.016c-1.434 1.082-2.97 1.268-4.04 1.102-.355-.055-.43-.537-.106-.695.979-.482 1.595-1.437 1.954-2.211l-.098-.08c-3.306-3.73-3.171-9.44.398-13.01 3.708-3.712 9.722-3.712 13.434 0z"/>
        <text fill="#FFF" font-family="Gotham-Bold, Gotham" font-size="12" font-weight="bold" letter-spacing="-1.2" transform="translate(35.5 15.04)">
            <tspan x="2.912" y="13">up</tspan>
        </text>
    </g>
</svg>
