<svg xmlns="http://www.w3.org/2000/svg" width="153" height="198" viewBox="0 0 153 198">
    <g fill="#FFF" fill-rule="evenodd">
        <path d="M149.608 93.307c-14.18 4.607-24.317 14.593-30.186 29.752-2.931 7.593-4.138 14.841-4.628 19.703 10.138-2.159 34.228-11.283 34.814-49.455zm-102.828.159c-.552 14.2 2.786 25.696 9.959 34.234 8.648 10.303 20.82 13.952 27.117 15.193-.71-12.365-5.8-40.89-37.076-49.427zm56.435 103.979l-.049-29.366.29-19.255c-.007-.38-.634-57.862 50.448-67.986l6.228-1.235.338 6.345c1.152 21.821-3.855 39.076-14.883 51.297-11 12.2-24.883 15.745-31.2 16.758l-.214 14.16.028 16.875c41.283-7.172 71.559-43.393 71.372-86.655-.172-39.2-33.13-75.4-62.62-83.38l-.373-.124c-21.469-7.49-41.62-1.73-41.814-1.676l-.441.11C39.98 21.756 10.828 57.839 11.008 99.129c.186 42.924 31.041 78.765 72.717 85.703l.145-30.752c-7.11-1.144-23.752-5.22-35.566-19.296-10.179-12.131-14.22-28.504-12.007-48.662l.642-5.821 5.772 1c53.635 9.31 52.359 63.78 52.186 67.828l-.22 48.041-6.007-.586C38.332 191.686.215 149.81 0 99.176-.2 52.748 32.533 12.162 77.87 2.583c2.676-.752 24.372-6.393 48.152 1.841 33.958 9.304 70.372 49.193 70.558 93.91.22 51.042-37.317 93.387-87.317 98.49l-6.048.62z"/>
        <path d="M98.291 54.34h-.062c-8.255.034-14.938 6.772-14.896 15.027a14.859 14.859 0 0 0 4.42 10.559 14.866 14.866 0 0 0 10.538 4.337h.062c4-.02 7.745-1.593 10.566-4.427a14.847 14.847 0 0 0 4.33-10.6 14.837 14.837 0 0 0-4.427-10.559 14.85 14.85 0 0 0-10.53-4.338zm0 40.93c-6.896 0-13.386-2.669-18.283-7.524-4.93-4.883-7.662-11.4-7.69-18.33-.061-14.325 11.539-26.021 25.856-26.084h.117c6.897 0 13.386 2.67 18.283 7.525 4.931 4.89 7.655 11.393 7.69 18.33.027 6.939-2.649 13.47-7.531 18.4-4.883 4.925-11.393 7.656-18.331 7.683h-.11z"/>
    </g>
</svg>
