<svg xmlns="http://www.w3.org/2000/svg" xmlns:xlink="http://www.w3.org/1999/xlink" width="101" height="102" viewBox="0 0 101 102">
    <defs>
        <path id="a" d="M.056 11.82L35.992.136"/>
        <path id="c" d="M.302 1.347a1.253 1.253 0 1 0 2.506 0 1.253 1.253 0 0 0-2.506 0"/>
        <path id="e" d="M0 1.694a1.253 1.253 0 1 0 2.506 0 1.253 1.253 0 0 0-2.506 0"/>
        <path id="g" d="M.414 1.583a1.253 1.253 0 1 0 2.505.001 1.253 1.253 0 0 0-2.505 0"/>
        <path id="i" d="M.067 1.44a1.253 1.253 0 1 0 2.505 0 1.253 1.253 0 0 0-2.506 0"/>
        <path id="k" d="M.067 1.583a1.252 1.252 0 1 0 2.504.002 1.252 1.252 0 0 0-2.505-.002"/>
        <path id="m" d="M.111 1.375a1.253 1.253 0 1 0 2.507-.001 1.253 1.253 0 0 0-2.507 0"/>
        <path id="o" d="M.324 1.583a1.253 1.253 0 1 0 2.505 0 1.253 1.253 0 0 0-2.506 0"/>
        <path id="q" d="M.253 1.32a1.254 1.254 0 1 0 2.507-.001 1.254 1.254 0 0 0-2.507.001"/>
        <path id="s" d="M.059 1.746a1.253 1.253 0 1 0 2.506.002 1.253 1.253 0 0 0-2.506-.002"/>
        <path id="u" d="M.067 1.552a1.253 1.253 0 1 0 2.505 0 1.253 1.253 0 0 0-2.506 0"/>
        <path id="w" d="M1.492.383a1.253 1.253 0 1 0 0 2.506 1.253 1.253 0 0 0 0-2.506z"/>
        <path id="y" d="M.067 1.32a1.253 1.253 0 1 0 2.505 0 1.253 1.253 0 0 0-2.506 0"/>
        <path id="A" d="M.302 1.591a1.254 1.254 0 1 0 2.508 0 1.254 1.254 0 0 0-2.508 0"/>
        <path id="C" d="M.013 1.32a1.253 1.253 0 1 0 2.507 0 1.253 1.253 0 0 0-2.506 0"/>
        <path id="E" d="M.302 1.583a1.253 1.253 0 1 0 2.506 0 1.253 1.253 0 0 0-2.506 0"/>
        <path id="G" d="M.302 1.32a1.253 1.253 0 1 0 2.507 0 1.253 1.253 0 0 0-2.507 0"/>
    </defs>
    <g fill="none" fill-rule="evenodd">
        <g transform="translate(28 29)">
            <circle cx="22.5" cy="22.5" r="22.5" fill="#D8D8D8"/>
            <path fill="#313643" fill-rule="nonzero" d="M34.04 16.574a2.604 2.604 0 0 0-2.601-2.601c-.534 0-1.052.164-1.487.47a2.588 2.588 0 0 0-2.973 0 2.584 2.584 0 0 0-2.973 0 2.59 2.59 0 0 0-2.972 0 2.593 2.593 0 0 0-2.973-.001v-2.166L15.934 11h-.846v3.442a2.61 2.61 0 0 0-1.115 2.132 2.604 2.604 0 0 0 2.601 2.601 2.59 2.59 0 0 0 1.487-.469 2.59 2.59 0 0 0 2.973 0 2.595 2.595 0 0 0 2.972 0 2.59 2.59 0 0 0 2.973 0c.427.298.943.47 1.487.47.137 0 .273-.014.407-.035-.021.134-.036.269-.036.406 0 .138.013.274.035.408a2.663 2.663 0 0 0-1.89.435 2.586 2.586 0 0 0-2.976-.002 2.59 2.59 0 0 0-2.973 0 2.584 2.584 0 0 0-2.972 0 2.595 2.595 0 0 0-2.973 0 2.588 2.588 0 0 0-1.487-.47 2.604 2.604 0 0 0-2.135 4.093 2.595 2.595 0 0 0 .003 2.969c-.294.422-.469.933-.469 1.486a2.597 2.597 0 1 0 4.088 2.132 2.594 2.594 0 0 0 2.973 0 2.588 2.588 0 0 0 2.973 0 2.594 2.594 0 0 0 2.974-.001 2.588 2.588 0 0 0 2.972 0v2.167l2.126 1.276h.846v-3.442a2.61 2.61 0 0 0 1.115-2.132 2.605 2.605 0 0 0-2.601-2.601c-.534 0-1.052.164-1.487.469a2.588 2.588 0 0 0-2.973 0 2.587 2.587 0 0 0-2.972 0 2.595 2.595 0 0 0-2.973 0 2.588 2.588 0 0 0-1.487-.47 2.62 2.62 0 0 0-.407.036c.021-.134.036-.27.036-.407 0-.138-.015-.274-.036-.407.134.02.27.035.407.035.553 0 1.064-.174 1.486-.47a2.594 2.594 0 0 0 2.973 0 2.588 2.588 0 0 0 2.973 0 2.588 2.588 0 0 0 2.973.001 2.587 2.587 0 0 0 2.973 0c.434.303.95.47 1.487.47a2.605 2.605 0 0 0 2.601-2.602c0-.534-.165-1.052-.47-1.486a2.587 2.587 0 0 0 0-2.973c.304-.434.47-.951.47-1.487zm-1.22 4.708c.308.342.477.782.477 1.238a1.86 1.86 0 0 1-1.858 1.858c-.33 0-.65-.09-.93-.253.348-.443.558-1 .558-1.605h-.743a1.86 1.86 0 0 1-1.858 1.858c-.786 0-1.49-.497-1.753-1.238l-.7.247c.096.272.236.518.407.736-.674.377-1.576.308-2.165-.221l-.249-.223-.248.223a1.853 1.853 0 0 1-2.983-.743l-.698.256c.095.26.23.498.397.708a1.934 1.934 0 0 1-1.855 0c.347-.443.556-.998.556-1.603h-.743a1.86 1.86 0 0 1-1.858 1.858 1.82 1.82 0 0 1-.691-.137 2.604 2.604 0 0 0-.9-.953l-.396.63a1.85 1.85 0 0 1 .736 2.269 2.603 2.603 0 0 0-1.35 2.279h.743a1.86 1.86 0 0 1 1.858-1.858c.457 0 .896.169 1.238.476l.249.223.248-.223c.59-.53 1.492-.598 2.166-.22a2.603 2.603 0 0 0-.556 1.602h.743a1.862 1.862 0 0 1 1.858-1.858 1.86 1.86 0 0 1 1.858 1.858h.743c0-.605-.209-1.16-.556-1.603.674-.376 1.576-.308 2.166.22l.248.224.249-.223a1.853 1.853 0 0 1 1.238-.476 1.86 1.86 0 0 1 1.858 1.858c0 .66-.356 1.276-.93 1.607l-.185.107v3.055l-1.486-.892v-2.162l-.186-.108a1.882 1.882 0 0 1-.31-.225l-.248-.223-.248.223a1.853 1.853 0 0 1-2.976-.724l-.695.263c.094.25.226.478.386.682a1.933 1.933 0 0 1-1.853-.001c.174-.222.316-.472.411-.748l-.701-.243a1.853 1.853 0 0 1-2.994.771l-.248-.223-.249.223c-.59.529-1.492.598-2.165.22.174-.22.315-.47.411-.746l-.702-.245a1.86 1.86 0 0 1-1.755 1.247 1.86 1.86 0 0 1-1.858-1.858 1.86 1.86 0 0 1 1.858-1.858v-.743c-.605 0-1.162.21-1.605.558-.162-.28-.253-.6-.253-.93 0-.328.09-.646.251-.926a2.6 2.6 0 0 0 1.187.52l.12-.733a1.85 1.85 0 0 1-1.558-1.834 1.856 1.856 0 1 1 3.097-1.382l.248.222.248-.222c.59-.53 1.492-.598 2.165-.22a2.591 2.591 0 0 0-.407.734l.7.248a1.861 1.861 0 0 1 1.753-1.238 1.86 1.86 0 0 1 1.858 1.858h.743c0-.605-.209-1.16-.556-1.602.674-.377 1.576-.31 2.167.22l.247.222.248-.222a1.856 1.856 0 0 1 3.097 1.382h.743c0-.605-.209-1.16-.556-1.602a1.893 1.893 0 0 1 1.628-.114c.095.17.206.33.338.477l.553-.496a1.851 1.851 0 0 1-.338-1.936c.17-.095.333-.207.481-.34l-.496-.553a1.856 1.856 0 0 1-2.99-.762l-.701.248c.096.27.235.517.407.735-.674.377-1.575.308-2.166-.22l-.248-.223-.247.222c-.59.53-1.492.598-2.166.221.171-.218.31-.464.407-.734l-.7-.249a1.856 1.856 0 0 1-2.99.762l-.25-.222-.247.222a1.856 1.856 0 1 1-2.167-2.99l.185-.107v-3.054l1.486.892v2.162l.186.108c.11.063.213.139.31.225l.248.222.248-.222c.59-.529 1.492-.597 2.166-.22a2.587 2.587 0 0 0-.556 1.602h.743a1.856 1.856 0 1 1 3.097-1.382l.247.222.248-.222a1.856 1.856 0 0 1 3.097 1.382h.743c0-.604-.209-1.16-.556-1.602.674-.377 1.575-.309 2.166.22l.248.222.248-.222a1.856 1.856 0 0 1 3.097 1.382c0 .33-.09.65-.253.93-.443-.348-1-.558-1.605-.558v.743a1.86 1.86 0 0 1 1.858 1.858c0 .456-.17.896-.476 1.238l-.223.249.223.248z"/>
        </g>
        <path stroke="#000" stroke-width=".549" d="M84 82v1h-1"/>
        <path stroke="#000" stroke-dasharray="2.18,2.18" stroke-width=".549" d="M82 83.5H15"/>
        <path stroke="#000" stroke-width=".549" d="M14 83h-1v-1"/>
        <path stroke="#000" stroke-dasharray="2.18,2.18" stroke-width=".549" d="M13.5 82V14"/>
        <path stroke="#000" stroke-width=".549" d="M13 13v-1h1"/>
        <path stroke="#000" stroke-dasharray="2.18,2.18" stroke-width=".549" d="M15 12.5h67"/>
        <path stroke="#000" stroke-width=".549" d="M83 12h1v1"/>
        <path stroke="#000" stroke-dasharray="2.18,2.18" stroke-width=".549" d="M83.5 14v68"/>
        <path stroke="#000" stroke-width="1.099" d="M100 49.411L52.073 101 1 52.589 48.927 1z"/>
        <g transform="translate(13 1)">
            <mask id="b" fill="#fff">
                <use xlink:href="#a"/>
            </mask>
            <path d="M.056 11.82L35.992.136" mask="url(#b)"/>
        </g>
        <path stroke="#000" stroke-width=".275" d="M13 13L49 1"/>
        <g transform="translate(12 37)">
            <mask id="d" fill="#fff">
                <use xlink:href="#c"/>
            </mask>
            <path d="M.302 1.347a1.253 1.253 0 1 0 2.506 0 1.253 1.253 0 0 0-2.506 0" mask="url(#d)"/>
        </g>
        <g transform="translate(0 50)">
            <mask id="f" fill="#fff">
                <use xlink:href="#e"/>
            </mask>
            <path d="M0 1.694a1.253 1.253 0 1 0 2.506 0 1.253 1.253 0 0 0-2.506 0" mask="url(#f)"/>
        </g>
        <g transform="translate(67 81)">
            <mask id="h" fill="#fff">
                <use xlink:href="#g"/>
            </mask>
            <path d="M.414 1.583a1.253 1.253 0 1 0 2.505.001 1.253 1.253 0 0 0-2.505 0" mask="url(#h)"/>
        </g>
        <g transform="translate(82 31)">
            <mask id="j" fill="#fff">
                <use xlink:href="#i"/>
            </mask>
            <path d="M.067 1.44a1.253 1.253 0 1 0 2.505 0 1.253 1.253 0 0 0-2.506 0" mask="url(#j)"/>
        </g>
        <g transform="translate(82 81)">
            <mask id="l" fill="#fff">
                <use xlink:href="#k"/>
            </mask>
            <path d="M.067 1.583a1.252 1.252 0 1 0 2.504.002 1.252 1.252 0 0 0-2.505-.002" mask="url(#l)"/>
        </g>
        <path stroke="#000" stroke-width=".275" d="M48.927 1L83.39 12.849 100 49.411 83.39 83.595 52.072 101 13.35 83.595 1 52.589l12.35-39.74"/>
        <g transform="translate(99 48)">
            <mask id="n" fill="#fff">
                <use xlink:href="#m"/>
            </mask>
            <path d="M.111 1.375a1.253 1.253 0 1 0 2.507-.001 1.253 1.253 0 0 0-2.507 0" mask="url(#n)"/>
        </g>
        <g transform="translate(32 81)">
            <mask id="p" fill="#fff">
                <use xlink:href="#o"/>
            </mask>
            <path d="M.324 1.583a1.253 1.253 0 1 0 2.505 0 1.253 1.253 0 0 0-2.506 0" mask="url(#p)"/>
        </g>
        <g transform="translate(61 11)">
            <mask id="r" fill="#fff">
                <use xlink:href="#q"/>
            </mask>
            <path d="M.253 1.32a1.254 1.254 0 1 0 2.507-.001 1.254 1.254 0 0 0-2.507.001" mask="url(#r)"/>
        </g>
        <g transform="translate(51 99)">
            <mask id="t" fill="#fff">
                <use xlink:href="#s"/>
            </mask>
            <path d="M.059 1.746a1.253 1.253 0 1 0 2.506.002 1.253 1.253 0 0 0-2.506-.002" mask="url(#t)"/>
        </g>
        <g transform="translate(82 65)">
            <mask id="v" fill="#fff">
                <use xlink:href="#u"/>
            </mask>
            <path d="M.067 1.552a1.253 1.253 0 1 0 2.505 0 1.253 1.253 0 0 0-2.506 0" mask="url(#v)"/>
        </g>
        <g transform="translate(48 -1)">
            <mask id="x" fill="#fff">
                <use xlink:href="#w"/>
            </mask>
            <path d="M1.492.383a1.253 1.253 0 1 0 0 2.506 1.253 1.253 0 0 0 0-2.506z" mask="url(#x)"/>
        </g>
        <g transform="translate(82 11)">
            <mask id="z" fill="#fff">
                <use xlink:href="#y"/>
            </mask>
            <path d="M.067 1.32a1.253 1.253 0 1 0 2.505 0 1.253 1.253 0 0 0-2.506 0" mask="url(#z)"/>
        </g>
        <g transform="translate(12 62)">
            <mask id="B" fill="#fff">
                <use xlink:href="#A"/>
            </mask>
            <path d="M.302 1.591a1.254 1.254 0 1 0 2.508 0 1.254 1.254 0 0 0-2.508 0" mask="url(#B)"/>
        </g>
        <g transform="translate(37 11)">
            <mask id="D" fill="#fff">
                <use xlink:href="#C"/>
            </mask>
            <path d="M.013 1.32a1.253 1.253 0 1 0 2.507 0 1.253 1.253 0 0 0-2.506 0" mask="url(#D)"/>
        </g>
        <g transform="translate(12 81)">
            <mask id="F" fill="#fff">
                <use xlink:href="#E"/>
            </mask>
            <path d="M.302 1.583a1.253 1.253 0 1 0 2.506 0 1.253 1.253 0 0 0-2.506 0" mask="url(#F)"/>
        </g>
        <g transform="translate(12 11)">
            <mask id="H" fill="#fff">
                <use xlink:href="#G"/>
            </mask>
            <path d="M.302 1.32a1.253 1.253 0 1 0 2.507 0 1.253 1.253 0 0 0-2.507 0" mask="url(#H)"/>
        </g>
    </g>
</svg>
