<svg xmlns="http://www.w3.org/2000/svg" width="45" height="45" viewBox="0 0 45 45">
    <g fill="none" fill-rule="evenodd">
        <circle cx="22.5" cy="22.5" r="22.5" fill="#313643"/>
        <g fill="#FFF" fill-rule="nonzero">
            <path d="M36 20.484a3.79 3.79 0 0 0-2.118-3.38 3.779 3.779 0 0 0-3.753-4.168c-.032 0-.063.005-.096.006A3.778 3.778 0 0 0 26.355 10c-1.46 0-2.728.836-3.355 2.053A3.775 3.775 0 0 0 19.645 10a3.771 3.771 0 0 0-3.68 2.94c-.031 0-.062-.005-.094-.005a3.779 3.779 0 0 0-3.754 4.161A3.797 3.797 0 0 0 10 20.484c0 .966.368 1.845.967 2.513a3.774 3.774 0 0 0-.967 2.52c0 1.438.842 2.75 2.118 3.38a3.779 3.779 0 0 0 3.753 4.168c.032 0 .063-.005.094-.005a3.771 3.771 0 0 0 3.68 2.94c1.46 0 2.728-.836 3.355-2.053A3.775 3.775 0 0 0 26.355 36a3.778 3.778 0 0 0 3.678-2.942c.033.001.064.007.096.007a3.779 3.779 0 0 0 3.754-4.161A3.797 3.797 0 0 0 36 25.516c0-.966-.368-1.845-.967-2.513a3.774 3.774 0 0 0 .967-2.52zm-2.729 7.772l-.329.126.067.346a2.939 2.939 0 0 1-2.88 3.498 3.779 3.779 0 0 0-3.774-3.774v.838a2.939 2.939 0 0 1 2.935 2.936 2.939 2.939 0 0 1-2.935 2.935 2.939 2.939 0 0 1-2.936-2.935V16.29h-.838v15.936a2.939 2.939 0 0 1-2.936 2.935 2.932 2.932 0 0 1-2.844-2.217 3.777 3.777 0 0 0 2.844-3.654h-.839a2.939 2.939 0 0 1-2.935 2.936 2.939 2.939 0 0 1-2.936-2.936 2.939 2.939 0 0 1 2.936-2.935v-.839a3.778 3.778 0 0 0-3.563 2.541 2.954 2.954 0 0 1-1.47-2.54c0-.728.272-1.425.753-1.96a3.75 3.75 0 0 0 2.183.701v-.839a2.939 2.939 0 0 1-2.935-2.935c0-1.207.76-2.308 1.89-2.74l.33-.126-.068-.346a2.939 2.939 0 0 1 2.88-3.498 2.939 2.939 0 0 1 2.935 2.936h.84a3.777 3.777 0 0 0-2.845-3.654 2.932 2.932 0 0 1 2.844-2.217 2.939 2.939 0 0 1 2.936 2.935v1.678h.838v-1.678a2.939 2.939 0 0 1 2.936-2.935 2.939 2.939 0 0 1 2.935 2.935 2.939 2.939 0 0 1-2.935 2.936v.838a3.779 3.779 0 0 0 3.774-3.774 2.939 2.939 0 0 1 2.936 2.936 2.939 2.939 0 0 1-2.936 2.935v.839a3.778 3.778 0 0 0 3.563-2.542 2.955 2.955 0 0 1 1.47 2.542c0 .727-.272 1.424-.753 1.96a3.75 3.75 0 0 0-2.183-.702 3.779 3.779 0 0 0-3.774 3.774h.838a2.939 2.939 0 0 1 2.936-2.935 2.939 2.939 0 0 1 2.935 2.935c0 1.207-.76 2.308-1.89 2.74z"/>
            <path d="M27.613 13.774h.839a2.1 2.1 0 0 0-2.097-2.097v.84a1.26 1.26 0 0 1 1.258 1.257zM25.097 32.226h-.839a2.1 2.1 0 0 0 2.097 2.097v-.84a1.26 1.26 0 0 1-1.258-1.257zM32.226 26.774v.839a2.1 2.1 0 0 0 2.097-2.097h-.84a1.26 1.26 0 0 1-1.257 1.258zM25.935 25.097h-.838a2.519 2.519 0 0 0 2.516 2.516v-.839a1.68 1.68 0 0 1-1.678-1.677zM26.774 19.226v-.839a2.519 2.519 0 0 0-2.516 2.516h.839a1.68 1.68 0 0 1 1.677-1.677zM20.065 25.097h-.84a2.519 2.519 0 0 0 2.517 2.516v-.839a1.68 1.68 0 0 1-1.677-1.677zM26.355 21.323h-.839a2.519 2.519 0 0 0 2.516 2.516V23a1.68 1.68 0 0 1-1.677-1.677zM20.903 19.226v-.839a2.519 2.519 0 0 0-2.516 2.516h.839a1.68 1.68 0 0 1 1.677-1.677zM15.452 24.677h.838A1.68 1.68 0 0 1 17.968 23v-.839a2.519 2.519 0 0 0-2.516 2.516zM15.871 30.548v.84a2.1 2.1 0 0 0 2.097-2.098h-.839a1.26 1.26 0 0 1-1.258 1.258zM11.677 20.484h.84a1.26 1.26 0 0 1 1.257-1.258v-.839a2.1 2.1 0 0 0-2.097 2.097zM15.871 14.613v.839a1.26 1.26 0 0 1 1.258 1.258h.839a2.1 2.1 0 0 0-2.097-2.097zM19.645 11.677v.84a1.26 1.26 0 0 1 1.258 1.257h.839a2.1 2.1 0 0 0-2.097-2.097z"/>
        </g>
    </g>
</svg>
