<svg xmlns="http://www.w3.org/2000/svg" xmlns:xlink="http://www.w3.org/1999/xlink" width="108" height="16" viewBox="0 0 108 16">
    <defs>
        <path id="a" d="M0 0h108v16H0z"/>
    </defs>
    <g fill="none" fill-rule="evenodd">
        <mask id="b" fill="#fff">
            <use xlink:href="#a"/>
        </mask>
        <path fill="#2A2B2B" d="M29.612 15.517h1.14V.375h-1.14v15.142zM19.573 9.07h5.768V5.904h-5.768v3.165zm6.908.986h-6.959c-.527 0-1.089-.238-1.089-1.038V1.225h1.14v3.709h5.768v-3.71h1.14v8.831zM47.423 5.989h-2.042v9.528h-1.14v-5.496h-9.698c-.459 0-1.14-.272-1.14-1.072V1.514h8.218v.97h-7.078v2.552h6.295V6.04h-6.295v2.995h9.698V.375h1.14v4.627h2.042v.987zM60.233 11.723h1.14V.375h-1.14v11.348zm1.36 3.675h-9.868c-.833 0-1.208-.34-1.208-1.072V9.613h1.14v4.798h9.936v.987zM50.296 7.112h5.665V2.467h-5.665v4.645zm6.805.987H50.33c-.544 0-1.174-.256-1.174-1.072v-5.53H57.1V8.1zM78.061 5.547h-2.058v6.193h-1.14V.374h1.14v4.203h2.058v.97zM76.31 15.38h-9.834c-.715 0-1.174-.34-1.174-1.02V9.986h1.14v4.407h9.868v.987zM67.955 4.168c-1.787.017-3.114.528-3.114 1.872s1.327 1.855 3.114 1.872c1.803.016 3.114-.528 3.114-1.872s-1.31-1.889-3.114-1.872zm0 4.679c-2.416 0-4.22-.833-4.22-2.807s1.804-2.807 4.22-2.807c2.416 0 4.22.833 4.22 2.807s-1.804 2.807-4.22 2.807zm4.372-6.329h-8.812v-.987h3.776V.001h1.157v1.53h3.88v.987zM84.61 2.297c-1.685 0-3.216.92-3.216 2.62 0 1.633 1.582 2.467 3.284 2.45 1.684-.017 3.215-.868 3.215-2.518s-1.599-2.552-3.284-2.552zm4.338 2.586c0 2.4-1.786 3.386-4.287 3.386-2.4 0-4.356-1.004-4.356-3.352 0-2.552 1.973-3.556 4.304-3.556 2.366 0 4.339.936 4.339 3.522zm1.906 6.84H79.437v-.987h11.417V.375h1.14v15.142h-1.14v-3.794zM96.79 10.447h1.14v3.964h9.697v.987h-9.63c-.646 0-1.208-.357-1.208-1.038v-3.913zm3.096-8.473c-1.26 0-3.114.323-3.114 1.888 0 1.463 1.906 1.77 3.165 1.753 1.225-.017 3.13-.306 3.13-1.804 0-1.531-1.905-1.837-3.181-1.837zm4.22 1.854c0 2.212-2.366 2.62-4.186 2.62-1.786 0-4.186-.357-4.186-2.586 0-2.365 2.433-2.756 4.17-2.756 1.802 0 4.202.34 4.202 2.722zm2.058 3.947v-7.4h1.14V12.71h-1.14v-1.566h-3.012v-.986h3.012V8.745h-5.666v2.688h-1.14V8.745h-4.491v-.97h11.297z" mask="url(#b)"/>
        <path fill="#E9551A" d="M11.969 7.513c-1.134.369-1.945 1.168-2.415 2.38a6.172 6.172 0 0 0-.37 1.577c.81-.173 2.738-.903 2.785-3.957zm-8.226.013c-.044 1.136.223 2.056.796 2.739.692.824 1.666 1.116 2.17 1.215-.057-.99-.464-3.271-2.966-3.954zm4.514 8.318l-.003-2.349.023-1.54c0-.03-.051-4.63 4.036-5.44l.498-.098.027.507c.092 1.746-.309 3.127-1.19 4.104-.88.976-1.991 1.26-2.497 1.34l-.017 1.134.002 1.35c3.303-.574 5.725-3.472 5.71-6.933-.014-3.136-2.65-6.032-5.01-6.67l-.03-.01C8.09.639 6.478 1.1 6.463 1.105l-.036.009C3.2 1.789.866 4.676.881 7.979a6.958 6.958 0 0 0 5.817 6.856l.012-2.46c-.569-.092-1.9-.418-2.845-1.544-.815-.97-1.138-2.28-.96-3.893l.05-.465.462.08c4.29.744 4.189 5.102 4.175 5.426l-.018 3.843-.48-.047A7.836 7.836 0 0 1 0 7.983C-.016 4.268 2.603 1.022 6.23.255c.214-.06 1.95-.511 3.852.148 2.717.744 5.63 3.935 5.645 7.512.017 4.084-2.986 7.471-6.986 7.88l-.484.05z" mask="url(#b)"/>
        <path fill="#E9551A" d="M7.864 4.396h-.005a1.197 1.197 0 0 0 .005 2.394h.005A1.193 1.193 0 0 0 9.06 5.587a1.187 1.187 0 0 0-.354-.844 1.188 1.188 0 0 0-.842-.347zm0 3.274c-.552 0-1.071-.213-1.463-.602a2.08 2.08 0 0 1 1.453-3.553h.01c.551 0 1.07.214 1.462.602.395.391.613.912.615 1.467a2.067 2.067 0 0 1-.602 1.472c-.39.394-.912.612-1.467.614h-.008z" mask="url(#b)"/>
    </g>
</svg>
